<svg version="1.1" viewBox="0 0 240 240" xmlns="http://www.w3.org/2000/svg">
  <circle cx="122" cy="119" r="120" fill="#fd5"/>
  <path transform="matrix(.912 0 0 1 10.3 0)" d="m44 180c-5.66-5.76-7.32-17.9-4.96-26.6 4.09 5.53 9.76 7.28 15.6 8.27 9.06 1.52 18 .953 26.4-3.65.965-.528 1.85-1.23 2.9-1.94.793 2.55.998 5.12.721 7.74-.669 6.38-3.52 11.3-8.06 15-1.81 1.49-3.73 2.83-5.61 4.24-5.75 4.33-7.31 9.41-5.15 16.8l.21.797c-2.75-1.33-5.09-3.56-6.72-6.4-1.69-2.9-2.6-6.3-2.6-9.78-.0192-1.72-.0192-3.46-.229-5.16-.506-4.14-2.25-6-5.54-6.1-3.38-.108-6.05 2.21-6.76 5.87-.0573.285-.134.56-.215.889h.0095zm-28.5-23.9s15.5-8.48 31-8.48l11.7-40.7c.439-1.97 1.72-3.31 3.16-3.31s2.72 1.34 3.16 3.31l11.7 40.7c18.4 0 31 8.48 31 8.48l-26.3-80.7c-.754-2.38-2.03-3.92-3.75-3.92h-31.5c-1.72 0-2.94 1.54-3.74 3.92z"/>
  <path transform="matrix(1.01 0 0 1.25 27.6 -52.3)" d="m112 172c21.5 0 34.1-12.1 34.1-33.1v-38.5h-23.2v37.8c0 10.7-4.1 14.7-10.7 14.7-6.6 0-10.7-4-10.7-14.7v-37.8h-23.6v38.5c0 21 12.6 33.1 34.1 33.1zm44.9-1.6h23.6v-70h-23.6z" stroke-width="2.17" aria-label="UI"/>
</svg>
