<svg version="1.1" viewBox="0 0 240 240" xmlns="http://www.w3.org/2000/svg">
  <circle cx="120" cy="120" r="120" fill="#fd5"/>
  <path d="m50.4 180c-5.17-5.76-6.67-17.9-4.52-26.6 3.73 5.53 8.9 7.28 14.3 8.27 8.26 1.52 16.4.953 24.1-3.65.88-.528 1.69-1.23 2.65-1.94.723 2.55.91 5.12.658 7.74-.61 6.38-3.21 11.3-7.35 15-1.66 1.49-3.41 2.83-5.12 4.24-5.25 4.33-6.67 9.41-4.7 16.8l.192.797c-2.51-1.33-4.65-3.56-6.13-6.4-1.54-2.9-2.37-6.3-2.37-9.78-.0175-1.72-.0175-3.46-.209-5.16-.462-4.14-2.06-6-5.06-6.1-3.08-.108-5.52 2.21-6.16 5.87-.0522.285-.122.56-.196.889h.0087zm-26-23.9s14.1-8.48 28.3-8.48l10.7-40.7c.401-1.97 1.57-3.31 2.88-3.31s2.48 1.34 2.88 3.31l10.7 40.7c16.8 0 28.3 8.48 28.3 8.48l-24-80.7c-.688-2.38-1.85-3.92-3.42-3.92h-28.8c-1.57 0-2.68 1.54-3.42 3.92z"/>
  <path d="m141 162c21.7 0 34.4-15.1 34.4-41.2v-48h-23.4v47.1c0 13.3-4.13 18.3-10.8 18.3-6.65 0-10.8-4.98-10.8-18.3v-47.1h-23.8v48c0 26.2 12.7 41.2 34.4 41.2zm45.3-1.99h23.8v-87.2h-23.8z" stroke-width="2.43" aria-label="UI"/>
</svg>
